<svg width="40" height="44" viewBox="0 0 40 44" fill="none" xmlns="http://www.w3.org/2000/svg">
<path d="M3.84082 19.2183L6.22499e-05 12.5659L2.62491 11.0504C6.40257 8.86938 11.1699 9.46757 14.2916 12.5143L14.7231 12.9354L3.84082 19.2183Z" fill="#F2EEE2"/>
<path d="M10.9829 31.5884L7.14215 24.936L9.76699 23.4205C13.5447 21.2395 18.312 21.8377 21.4337 24.8844L21.8652 25.3055L10.9829 31.5884Z" fill="#F2EEE2"/>
<path d="M18.125 43.959L14.2842 37.3066L16.9091 35.7911C20.6868 33.6101 25.4541 34.2083 28.5758 37.255L29.0073 37.6761L18.125 43.959Z" fill="#F2EEE2"/>
<path d="M25.605 6.65234L29.4457 13.3047L26.8209 14.8202C23.0432 17.0012 18.2759 16.403 15.1542 13.3563L14.7227 12.9352L25.605 6.65234Z" fill="#F2EEE2"/>
<path d="M32.7476 19.0229L36.5883 25.6753L33.9635 27.1908C30.1858 29.3718 25.4184 28.7736 22.2967 25.7269L21.8653 25.3058L32.7476 19.0229Z" fill="#F2EEE2"/>
</svg>
